<?xml version="1.0" standalone="no"?>
<!DOCTYPE svg PUBLIC "-//W3C//DTD SVG 20010904//EN"
 "http://www.w3.org/TR/2001/REC-SVG-20010904/DTD/svg10.dtd">
<svg version="1.0" xmlns="http://www.w3.org/2000/svg"
 width="1528.000000pt" height="1528.000000pt" viewBox="0 0 1528.000000 1528.000000"
 preserveAspectRatio="xMidYMid meet">
<metadata>
Created by potrace 1.11, written by Peter Selinger 2001-2013
</metadata>
<g transform="translate(0.000000,1528.000000) scale(0.100000,-0.100000)"
fill="#000000" stroke="none">
<path d="M3680 15265 c-112 -22 -129 -27 -250 -72 -267 -101 -537 -286 -667
-458 -68 -89 -122 -227 -118 -300 2 -25 29 -95 74 -189 39 -82 68 -153 64
-157 -4 -4 -75 -41 -158 -83 -82 -42 -158 -86 -167 -97 -25 -29 -22 -73 5
-103 40 -46 62 -41 240 49 l164 83 21 -41 c59 -120 204 -422 205 -430 1 -4
-68 -44 -153 -89 -85 -44 -160 -87 -167 -96 -37 -49 5 -132 66 -132 18 0 92
31 181 77 83 42 152 74 154 72 7 -7 206 -421 206 -428 0 -5 -165 -91 -279
-146 -12 -5 -28 -25 -37 -43 -20 -42 -5 -86 35 -106 38 -19 58 -13 212 64 139
70 159 78 159 61 0 -24 172 -363 188 -369 30 -12 244 -5 313 10 l67 15 53
-111 c29 -61 100 -208 157 -326 57 -118 135 -278 172 -355 174 -360 213 -441
290 -600 45 -93 113 -233 150 -310 37 -77 100 -207 140 -290 40 -82 103 -213
140 -290 37 -77 109 -225 160 -330 51 -104 114 -235 140 -290 26 -55 89 -185
140 -290 51 -104 121 -248 155 -320 35 -71 138 -285 229 -474 91 -189 166
-349 166 -355 0 -7 -19 -27 -42 -46 -59 -48 -201 -182 -269 -255 -376 -402
-599 -848 -656 -1310 -10 -76 -9 -325 0 -385 31 -191 70 -318 143 -463 76
-153 158 -264 286 -387 94 -90 86 -84 173 -145 195 -138 366 -300 474 -451
109 -153 197 -355 237 -544 45 -208 36 -481 -22 -715 -15 -57 -85 -267 -105
-310 -10 -24 -65 -221 -73 -262 -41 -229 -44 -248 -53 -368 -11 -152 -6 -371
11 -461 2 -10 9 -53 16 -94 7 -41 25 -124 42 -183 217 -791 864 -1359 1778
-1561 136 -30 300 -54 425 -64 178 -14 623 -6 720 12 11 2 47 7 80 11 75 8
257 40 350 61 39 9 77 17 85 19 145 31 526 157 665 220 28 12 75 33 105 45 30
13 127 60 215 105 955 488 1685 1282 1983 2160 32 92 86 292 96 355 3 19 8 44
10 56 2 12 8 45 11 75 4 30 10 65 12 79 2 14 6 111 8 215 4 230 -7 344 -49
527 -34 142 -57 217 -106 333 -192 459 -543 829 -1015 1072 -144 74 -224 106
-454 185 -445 151 -749 359 -962 658 -99 138 -218 403 -244 542 -26 140 -36
242 -39 419 -5 201 -7 229 -27 339 -67 357 -302 705 -619 915 -222 147 -471
245 -735 289 -55 10 -111 19 -125 22 -40 7 -238 18 -320 18 -80 -1 -283 -12
-315 -18 -11 -2 -45 -7 -76 -10 -31 -4 -65 -8 -75 -11 -11 -2 -66 -13 -124
-25 -58 -11 -127 -27 -154 -35 -27 -8 -55 -15 -62 -15 -7 0 -32 35 -56 78 -23
42 -53 95 -65 117 -23 40 -131 236 -168 303 -11 20 -37 66 -57 102 -19 36 -48
88 -63 115 -317 575 -573 1040 -592 1075 -14 25 -64 115 -110 200 -86 156
-132 240 -163 295 -9 17 -34 62 -54 100 -21 39 -42 75 -46 80 -4 6 -25 44 -47
85 -60 112 -100 185 -153 280 -40 71 -173 313 -358 650 -57 104 -66 120 -124
225 -30 55 -67 120 -80 145 -14 25 -69 125 -123 223 l-97 178 48 47 c89 87
146 157 187 233 l26 45 -30 55 c-17 30 -51 92 -76 139 -25 47 -52 94 -59 106
-13 19 -7 24 131 94 95 49 148 83 157 98 17 32 11 72 -14 98 -38 41 -61 37
-220 -43 -82 -41 -151 -73 -152 -71 -3 4 -128 233 -183 336 -25 46 -43 85 -41
86 1 2 71 38 155 80 137 69 153 80 163 110 19 60 -22 118 -80 111 -15 -2 -95
-37 -177 -79 l-150 -74 -124 225 c-68 125 -125 230 -127 234 -2 5 69 44 157
89 102 51 166 89 177 105 20 30 12 84 -15 109 -35 32 -72 22 -241 -63 -151
-76 -164 -81 -174 -64 -6 10 -47 83 -91 163 -87 157 -102 172 -210 206 -65 20
-250 25 -335 9z m305 -181 c26 -13 46 -35 67 -74 17 -30 71 -129 121 -220 50
-91 101 -183 112 -205 33 -60 140 -254 218 -395 13 -25 60 -110 104 -190 76
-137 100 -181 174 -317 18 -32 56 -102 87 -157 88 -159 131 -238 154 -283 l21
-42 -36 -44 c-33 -40 -104 -111 -204 -203 l-43 -39 44 -76 c23 -41 59 -104 78
-140 19 -35 44 -80 55 -99 11 -19 39 -71 63 -115 24 -44 62 -114 85 -155 23
-41 57 -102 75 -135 18 -33 50 -91 71 -128 22 -38 39 -70 39 -72 0 -2 15 -30
34 -62 18 -32 49 -87 68 -123 20 -36 71 -130 115 -210 44 -80 192 -347 328
-595 136 -247 259 -470 273 -495 86 -155 124 -224 162 -295 41 -75 164 -298
207 -375 11 -19 33 -60 50 -90 17 -30 81 -147 143 -260 62 -113 126 -230 143
-260 16 -30 41 -75 55 -100 14 -25 53 -97 87 -160 52 -96 218 -396 348 -630
27 -49 186 -336 257 -465 15 -27 52 -95 82 -150 105 -191 810 -1470 839 -1521
l28 -51 -82 3 c-177 6 -382 -47 -542 -141 -114 -67 -232 -174 -313 -283 l-47
-63 -745 1493 c-410 821 -774 1554 -809 1628 -36 74 -109 227 -164 340 -55
113 -129 266 -164 340 -36 74 -102 209 -145 300 -44 91 -111 228 -148 305 -37
77 -105 217 -150 310 -45 94 -108 224 -140 290 -32 66 -102 210 -155 320 -54
110 -119 245 -145 300 -26 55 -96 199 -155 320 -59 121 -124 256 -145 300 -21
44 -84 175 -140 290 -56 116 -118 243 -137 283 -30 65 -37 73 -56 68 -114 -33
-226 -57 -283 -62 l-69 -5 -29 63 c-17 35 -30 65 -31 68 -2 5 -42 89 -220 455
-48 99 -116 239 -150 310 -96 200 -190 395 -272 565 -171 352 -230 476 -235
490 -3 8 4 39 15 69 76 206 369 429 721 546 128 43 187 53 302 50 66 -1 101
-7 129 -21z m4355 -6518 c121 -12 242 -32 360 -60 335 -80 656 -283 846 -535
94 -125 195 -342 218 -466 3 -16 11 -57 17 -90 6 -33 13 -143 14 -245 3 -221
10 -294 36 -420 35 -163 78 -288 147 -427 59 -117 61 -121 137 -228 126 -179
335 -370 537 -490 77 -46 251 -135 263 -135 3 0 24 -9 48 -20 23 -10 114 -44
202 -73 245 -84 429 -164 540 -236 22 -14 52 -32 66 -40 34 -17 197 -139 251
-188 247 -222 420 -474 530 -768 31 -84 72 -233 82 -300 4 -22 8 -47 11 -55
19 -73 27 -418 12 -560 -10 -91 -64 -365 -77 -389 -5 -10 -11 -29 -13 -42 -5
-27 -43 -144 -56 -174 -5 -11 -21 -51 -36 -90 -28 -70 -133 -286 -174 -358
-279 -491 -719 -949 -1241 -1292 -615 -405 -1261 -635 -1970 -702 -159 -15
-680 -6 -710 12 -3 2 -30 6 -60 10 -30 3 -109 17 -175 31 -891 180 -1521 737
-1704 1506 -11 45 -22 101 -26 123 -3 23 -7 50 -9 62 -18 93 -24 312 -12 458
16 189 68 426 136 615 108 300 139 449 144 690 5 202 -18 368 -74 540 -53 163
-91 240 -199 405 -128 194 -305 366 -566 550 -32 22 -91 73 -132 113 -193 191
-320 438 -366 717 -14 82 -15 313 -3 395 22 140 77 347 116 435 112 252 231
448 383 630 106 127 379 388 391 374 1 -2 269 -536 595 -1187 l592 -1183 -27
-102 c-33 -127 -40 -310 -18 -432 53 -285 208 -524 450 -692 50 -34 184 -99
254 -121 155 -51 380 -62 539 -28 296 65 554 260 695 528 91 171 126 320 121
518 -2 63 -6 126 -9 140 -4 14 -9 38 -12 55 -20 111 -101 286 -184 396 -43 57
-151 167 -205 209 -63 48 -190 116 -280 150 -30 11 -40 27 -288 483 -20 38
-73 133 -116 211 -43 77 -92 166 -108 196 -17 30 -39 71 -50 90 -11 19 -109
197 -218 395 -109 198 -209 380 -223 405 -14 25 -41 74 -60 110 -20 36 -84
153 -144 260 -59 107 -109 201 -111 209 -1 8 14 18 41 26 23 7 42 11 42 9 0
-2 10 0 23 5 13 5 41 12 63 15 21 4 46 8 54 11 14 4 61 12 125 21 75 10 127
15 220 21 55 3 101 6 102 7 4 3 201 -3 253 -8z m190 -2590 c14 -3 36 -8 50
-10 52 -9 157 -49 219 -83 218 -118 372 -316 433 -557 29 -114 29 -288 -1
-411 -73 -304 -321 -556 -626 -637 -113 -30 -317 -29 -430 1 -379 101 -639
428 -650 816 -11 446 310 824 750 884 63 8 213 7 255 -3z"/>
<path d="M11390 2921 c-14 -3 -205 -97 -425 -207 -220 -111 -890 -448 -1490
-748 -599 -301 -1093 -552 -1097 -559 -18 -27 -20 -61 -5 -93 13 -26 24 -34
53 -40 35 -6 131 40 1533 742 823 412 1501 754 1507 759 21 20 34 54 30 77 -3
13 -5 26 -5 31 -1 8 -62 48 -71 46 -3 -1 -16 -4 -30 -8z"/>
</g>
</svg>
